# ProBuilder 5.0.7
# https://unity3d.com/unity/features/worldbuilding/probuilder
# 9/29/2023 3:12:43 PM

mtllib ./DunesBase.mtl
o DunesBase

g New DunesBase
v -210.7506 -1.274602 -149.1449
v -166.6355 -1.274602 -149.1449
v -210.7506 -1.274602 -123.4995
v -166.6355 -1.274602 -123.4995
v -180.1483 7.336552 -123.4995
v -187.8648 12.55754 -123.4995
v -187.8648 12.55754 -149.1449
v -180.1483 7.336552 -149.1449
v -195.0907 7.336552 -149.1449
v -189.5213 12.55754 -149.1449
v -189.5213 12.55754 -123.4995
v -195.0907 7.336552 -123.4995
v -204.4894 2.475015 -149.1449
v -175.2034 2.054312 -149.1449
v -175.2034 2.054312 -123.4995
v -204.4894 2.475015 -123.4995

vt 14.54941 20.25511
vt 58.66447 20.25511
vt 14.54941 45.90051
vt 58.66447 45.90051
vt -31.21993 45.90051
vt -21.90309 45.90051
vt -21.90309 20.25511
vt -31.21993 20.25511
vt -29.42835 20.25511
vt -38.74519 20.25511
vt -38.74519 45.90051
vt -29.42835 45.90051
vt -45.15169 11.03655
vt -30.20934 11.03655
vt -20.81062 6.175015
vt -50.09662 5.754312
vt -14.54941 2.425398
vt -58.66447 2.425398
vt -31.22427 20.25511
vt -38.2793 20.25511
vt -38.2793 45.90051
vt -31.22427 45.90051
vt -47.24171 20.25511
vt -47.24171 45.90051
vt 45.15169 11.03655
vt 50.09662 5.754312
vt 20.81062 6.175015
vt 30.20934 11.03655
vt 58.66447 2.425398
vt 14.54941 2.425398
vt -13.88955 45.90051
vt -13.88955 20.25511
vt -21.18413 20.25511
vt -21.18413 45.90051
vt -31.76061 20.25511
vt -31.76061 45.90051
vt -37.43517 45.90051
vt -37.43517 20.25511
vt -35.7787 45.90051
vt -35.7787 20.25511
vt 35.7787 16.25754
vt 37.43517 16.25754
vt -37.43517 16.25754
vt -35.7787 16.25754

vn 0 -1 0
vn 0.5603826 0.8282338 0
vn -0.6839213 0.7295558 0
vn 0 0 -1
vn 0.7300314 0.6834136 0
vn 0.3621598 0.932116 0
vn 0 0 1
vn -0.513779 0.8579226 0
vn -0.4594329 0.8882125 0
vn 0 1 0

usemtl ProBuilder_Default_URP
f 1/1/1 2/2/1 4/4/1 3/3/1
f 6/6/2 5/5/2 8/8/2 7/7/2
f 10/10/3 9/9/3 12/12/3 11/11/3
f 8/13/4 14/16/4 13/15/4 9/14/4
f 14/16/4 2/18/4 1/17/4 13/15/4
f 14/20/5 8/19/5 5/22/5 15/21/5
f 14/20/6 15/21/6 4/24/6 2/23/6
f 16/27/7 15/26/7 5/25/7 12/28/7
f 3/30/7 4/29/7 15/26/7 16/27/7
f 3/31/8 16/34/8 13/33/8 1/32/8
f 16/34/9 12/36/9 9/35/9 13/33/9
f 10/40/10 11/39/10 6/37/10 7/38/10
f 12/28/7 5/25/7 6/42/7 11/41/7
f 7/43/4 8/13/4 9/14/4 10/44/4

